<?xml version="1.0" encoding="UTF-8"?>
<svg id="Layer_1" data-name="Layer 1" xmlns="http://www.w3.org/2000/svg" viewBox="0 0 1000 938.79">
  <defs>
    <style>
      .cls-1 {
        fill: #231f20;
      }
    </style>
  </defs>
  <path class="cls-1" d="m76.53,554.31c-41.02,0-75.31-33.06-76.53-74.29V74.1C1.22,32.47,36.73-1,77.35.02h674.69c21.02.2,39.39,7.96,53.06,22.04,13.67,14.08,21.02,32.45,20.82,52.04v277.75h-20.41V74.1c0-14.29-5.1-27.55-15.1-37.75-9.8-10-23.06-15.71-37.35-15.92H77.14c-30.2-.2-55.71,23.67-56.73,53.88v405.51c.82,29.8,26.12,54.08,56.12,54.08h64.29v20.41s-64.29,0-64.29,0Z"/>
  <rect class="cls-1" x="10.2" y="128.19" width="805.51" height="20.41"/>
  <rect class="cls-1" x="10.2" y="256.35" width="805.51" height="20.41"/>
  <path class="cls-1" d="m250.61,938.79c-41.02,0-75.31-33.06-76.53-74.29v-406.12c1.22-41.63,36.12-75.1,77.35-74.08h674.69c41.84.41,74.29,33.67,73.88,74.08v405.71c0,41.63-33.06,74.49-73.67,74.49H250.61v.2Zm-.2-533.88c-30,0-54.9,24.08-55.92,53.88v405.51c.82,29.8,26.12,54.08,56.12,54.08h675.51c29.39,0,53.27-23.88,53.27-53.27v-406.73c.41-29.18-23.06-53.27-52.24-53.67H250.41v.2Z"/>
  <rect class="cls-1" x="271.43" y="790.22" width="108.78" height="20.41"/>
  <rect class="cls-1" x="445.51" y="790.22" width="108.78" height="20.41"/>
  <rect class="cls-1" x="619.79" y="790.22" width="108.78" height="20.41"/>
  <rect class="cls-1" x="793.87" y="790.22" width="108.78" height="20.41"/>
  <path class="cls-1" d="m499.39,661.24h-216.33v-148.57h216.33v148.57Zm-195.92-20.41h175.51v-107.75h-175.51v107.75Z"/>
</svg>