<?xml version="1.0" encoding="UTF-8"?>
<svg id="Layer_1" data-name="Layer 1" xmlns="http://www.w3.org/2000/svg" viewBox="0 0 1000 938.78">
  <defs>
    <style>
      .cls-1 {
        fill: #231f20;
      }
    </style>
  </defs>
  <path class="cls-1" d="m521.22,673.67h0c-17.35,0-31.43-14.29-31.43-31.63v-130.41h-53.67v-20.41h74.08v150.82c0,6.12,4.9,11.02,11.02,11.22h0c2.86,0,5.71-1.22,7.76-3.27l158.16-158.78h292.24V20.41H254.69v267.35h-20.41V0h765.71v511.63h-304.08l-152.24,152.86c-5.92,5.92-14.08,9.18-22.24,9.18h-.2Z"/>
  <path class="cls-1" d="m265.71,660.41c-51.43,0-137.96-22.04-137.96-170s86.53-170,137.96-170,137.96,22.04,137.96,170-86.53,170-137.96,170Zm0-319.59c-76.94,0-117.55,51.63-117.55,149.59s40.61,149.59,117.55,149.59,117.55-51.84,117.55-149.59-40.61-149.59-117.55-149.59Z"/>
  <path class="cls-1" d="m531.43,938.78H0v-74.29c0-78.57,99.39-159.8,265.71-159.8s265.71,81.22,265.71,159.8v74.29Zm-511.02-20.41h490.61v-53.88c0-56.12-77.96-139.39-245.31-139.39S20.41,808.16,20.41,864.49v53.88Z"/>
  <polygon class="cls-1" points="485.92 380.41 471.43 366.12 606.53 230.61 670.41 294.69 833.47 131.22 847.96 145.51 670.41 323.67 606.53 259.59 485.92 380.41"/>
  <polygon class="cls-1" points="851.02 266.53 830.61 266.53 830.61 148.57 712.86 148.57 712.86 128.16 851.02 128.16 851.02 266.53"/>
</svg>