<?xml version="1.0" encoding="UTF-8"?>
<svg id="Layer_1" data-name="Layer 1" xmlns="http://www.w3.org/2000/svg" viewBox="0 0 1000 923.57">
  <defs>
    <style>
      .cls-1 {
        fill: #231f20;
      }
    </style>
  </defs>
  <polygon class="cls-1" points="870.99 923.57 595.84 923.57 595.84 613.27 404.16 613.27 404.16 923.57 129.01 923.57 129.01 465 159.58 465 159.58 893 373.59 893 373.59 582.7 626.41 582.7 626.41 893 840.42 893 840.42 465 870.99 465 870.99 923.57"/>
  <polygon class="cls-1" points="978.29 520.02 499.85 43.11 21.71 520.02 0 498.32 499.85 0 1000 498.32 978.29 520.02"/>
  <polygon class="cls-1" points="203.91 243.35 173.34 243.35 173.34 28.43 315.19 28.43 315.19 132.38 284.62 132.38 284.62 59 203.91 59 203.91 243.35"/>
</svg>