<?xml version="1.0" encoding="UTF-8"?>
<svg id="Layer_1" data-name="Layer 1" xmlns="http://www.w3.org/2000/svg" viewBox="0 0 800 552.94">
  <defs>
    <style>
      .cls-1 {
        fill: #231f20;
      }
    </style>
  </defs>
  <path class="cls-1" d="m739.06,448.47h-23.53V44.24c0-11.29-10.12-20-20.94-20.71H105.41c-5.41.47-10.82,2.12-14.82,5.88-4,4-6.12,9.18-6.12,14.59v404.47h-23.53V44.24c0-12,4.71-23.06,13.18-31.29C82.35,4.47,93.88,0,105.41,0h589.41c24.24,0,44,19.76,44.24,44,0,0,0,404.47,0,404.47Z"/>
  <polygon class="cls-1" points="208.24 257.18 208.24 157.41 231.76 157.41 231.76 219.29 280.24 195.29 290.59 216.47 208.24 257.18"/>
  <rect class="cls-1" x="175.51" y="185.52" width="23.53" height="72.94" transform="translate(-94.7 291.57) rotate(-63.71)"/>
  <polygon class="cls-1" points="260.71 295.06 220 254.82 179.06 295.06 162.59 278.35 220 221.65 277.41 278.35 260.71 295.06"/>
  <polygon class="cls-1" points="388.24 257.18 388.24 157.41 411.76 157.41 411.76 219.29 460.24 195.29 470.59 216.47 388.24 257.18"/>
  <rect class="cls-1" x="355.47" y="185.55" width="23.53" height="72.94" transform="translate(5.53 452.93) rotate(-63.71)"/>
  <polygon class="cls-1" points="440.94 295.06 400 254.82 359.06 295.06 342.59 278.35 400 221.65 457.41 278.35 440.94 295.06"/>
  <polygon class="cls-1" points="568.24 257.18 568.24 157.41 591.76 157.41 591.76 219.29 640.24 195.29 650.82 216.47 568.24 257.18"/>
  <rect class="cls-1" x="535.66" y="185.58" width="23.53" height="72.94" transform="translate(105.88 614.51) rotate(-63.71)"/>
  <polygon class="cls-1" points="620.94 295.06 580 254.82 539.29 295.06 522.59 278.35 580 221.65 637.41 278.35 620.94 295.06"/>
  <path class="cls-1" d="m800,552.94H0v-110.82h800v110.82Zm-776.47-23.53h752.94v-63.76H23.53v63.76Z"/>
</svg>