<?xml version="1.0" encoding="UTF-8"?>
<svg id="Layer_1" data-name="Layer 1" xmlns="http://www.w3.org/2000/svg" viewBox="0 0 1000 944.9">
  <defs>
    <style>
      .cls-1 {
        fill: #231f20;
      }
    </style>
  </defs>
  <path class="cls-1" d="m825.61,944.6l-327.58-328.79-323.95,325.16L24.83,790.8l324.55-326.07-57.83-57.83v-128.07l-15.44-15.44v75.39l-59.64,59.64L56.92,237.66,0,296.7v-37.84C.91,180.74,31.49,106.57,86.29,50.86c1.82-2.12,4.54-5.15,7.27-7.87C122.62,14.83,161.67.61,201.33,0c40.57.61,78.11,16.65,106.57,45.72l165,165.91-38.45,38.75,63.58,63.88,64.18-64.18-38.45-38.75,165.61-165.91c2.42-2.72,5.45-5.15,8.17-7.87,30.28-26.34,69.33-39.66,109.6-36.94s77.2,20.89,103.85,51.17c54.8,54.8,86.29,128.67,88.1,207.39l.91,37.24-59.34-58.43-161.07,160.76-59.04-59.04v-75.99l-15.44,15.44v128.37l-57.83,57.22,327.58,329.7-149.86,150.47.61-.3Zm-327.58-371.78l327.58,328.79,107.18-107.48-327.88-329.7,70.24-69.94v-128.07l75.99-76.29v136.85l28.76,28.76,160.76-160.46,24.52,23.92c-9.39-55.4-35.73-106.57-75.99-146.84-22.1-25.13-51.47-39.66-83.86-41.48-32.39-2.12-63.58,8.48-87.8,29.97-2.42,2.12-4.54,4.24-6.66,6.36l-144.41,144.41,38.45,38.75-106.87,106.87-106.27-106.87,38.45-38.75-144.11-144.72c-22.71-23.31-52.98-36.33-85.38-36.63-33.61,0-62.97,11.81-85.98,34.51-2.12,2.12-4.24,4.54-6.36,6.66-40.27,40.87-65.7,91.73-74.48,146.53l22.71-23.31,160.16,161.07,29.37-29.37v-136.54l75.99,76.29v128.07l70.24,70.24L67.51,790.8l106.57,107.18s323.95-325.16,323.95-325.16Z"/>
</svg>