<?xml version="1.0" encoding="UTF-8"?>
<svg id="Layer_1" data-name="Layer 1" xmlns="http://www.w3.org/2000/svg" viewBox="0 0 19 20.99">
  <defs>
    <style>
      .cls-1 {
        fill: #231f20;
      }
    </style>
  </defs>
  <path class="cls-1" d="m15.93,20.99c-2.4,0-6.69-.9-11.17-6.21C.14,8.86-.56,3.89.34,1.2l.07-.22.21-.09C2.55.12,4.66-.16,6.73.09l.26.03.12.23c1.07,1.99,1.45,4.32,1.09,6.55l-.03.19-.15.12c-.72.58-1.49,1.1-2.31,1.54.39,1.21,1.04,2.32,1.9,3.25.76,1.08,1.71,1.94,2.81,2.56.58-.72,1.22-1.39,1.93-2l.15-.13h.19c2.24.08,4.42.91,6.14,2.36l.18.15v.23c0,1.95-.54,3.86-1.58,5.52l-.12.2-.23.03c-.31.04-.69.07-1.14.07ZM1.22,1.74c-.66,2.4.08,6.98,4.32,12.42,4.78,5.67,9.25,5.99,11.17,5.8.82-1.38,1.26-2.94,1.3-4.55-1.47-1.17-3.28-1.86-5.15-1.96-.7.62-1.34,1.3-1.89,2.05l-.25.34-.37-.19c-1.39-.7-2.6-1.75-3.49-3.02-1.02-1.09-1.8-2.49-2.21-4l-.11-.4.37-.18c.83-.41,1.62-.91,2.35-1.49.27-1.87-.05-3.81-.89-5.5-1.73-.17-3.5.06-5.13.69Z"/>
</svg>