<?xml version="1.0" encoding="UTF-8"?>
<svg id="Layer_1" data-name="Layer 1" xmlns="http://www.w3.org/2000/svg" viewBox="0 0 1179.79 951.26">
  <defs>
    <style>
      .cls-1 {
        fill: #fff;
      }
    </style>
  </defs>
  <path class="cls-1" d="m1118.25,462.09h-123.1l-61.55-108.76,61.55-108.77h123.1l61.54,108.77-61.54,108.76Zm-3.43-211.47h-116.25l-58.11,102.71,58.11,102.71h116.25l58.11-102.71-58.11-102.71Z"/>
  <path class="cls-1" d="m522.05,164.16L614.93,0h185.78l92.89,164.16-92.89,164.14h-185.78l-92.88-164.14Zm10.34,0l87.72,155.01h175.43l87.72-155.01L795.53,9.14h-175.43l-87.72,155.02Z"/>
  <path class="cls-1" d="m533.18,355.38l48.17-85.11h96.32l48.17,85.11-48.17,85.11h-96.32l-48.17-85.11Zm5.37,0l45.48,80.38h90.97l45.48-80.38-45.48-80.37h-90.96l-45.48,80.37Z"/>
  <path class="cls-1" d="m241.59,491.49l61.55-108.77h123.09l61.55,108.77-61.55,108.76h-123.09l-61.55-108.76Zm6.85,0l58.12,102.72h116.24l58.12-102.72-58.12-102.71h-116.24l-58.12,102.71Z"/>
  <path class="cls-1" d="m917.19,577.6l37.62-66.49h75.25l37.62,66.49-37.62,66.48h-75.25l-37.62-66.48Zm4.18,0l35.53,62.78h71.05l35.53-62.78-35.53-62.79h-71.06l-35.53,62.79Z"/>
  <path class="cls-1" d="m151.95,558.05l28.66-50.64h57.32l28.67,50.64-28.67,50.65h-57.32l-28.66-50.65Zm3.19,0l27.07,47.83h54.13l27.06-47.83-27.06-47.82h-54.13l-27.07,47.82Z"/>
  <path class="cls-1" d="m740.08,335.36l27.14-47.95h54.26l27.14,47.96-27.14,47.94h-54.26l-27.14-47.94Zm3.02,0l25.62,45.28h51.25l25.62-45.28-25.62-45.29h-51.25l-25.62,45.29Z"/>
  <path class="cls-1" d="m660.58,489.23l12.69-22.42h25.39l12.69,22.42-12.69,22.44h-25.39l-12.69-22.44Zm1.41,0l11.99,21.19h23.97l11.99-21.19-11.99-21.18h-23.97l-11.99,21.18Z"/>
  <path class="cls-1" d="m902.86,616.73l15.37-27.17h30.76l15.37,27.17-15.37,27.18h-30.76l-15.37-27.18Zm1.72,0l14.52,25.66h29.03l14.52-25.66-14.52-25.65h-29.03l-14.52,25.65Z"/>
  <path class="cls-1" d="m701.87,699.4l15.37-27.17h30.76l15.37,27.17-15.37,27.16h-30.76l-15.37-27.16Zm1.72,0l14.52,25.66h29.04l14.52-25.66-14.52-25.66h-29.04l-14.52,25.66Z"/>
  <path class="cls-1" d="m450.61,655.93l15.37-27.18h30.74l15.37,27.18-15.37,27.16h-30.74l-15.37-27.16Zm1.71,0l14.52,25.65h29.04l14.52-25.65-14.52-25.66h-29.04l-14.52,25.66Z"/>
  <path class="cls-1" d="m907.2,261.11l34.57-61.1h69.15l34.57,61.1-34.57,61.1h-69.15l-34.57-61.1Zm3.84,0l32.65,57.7h65.31l32.64-57.7-32.64-57.7h-65.31l-32.65,57.7Z"/>
  <path class="cls-1" d="m486.34,435.47l21.01-37.15h42.04l21.01,37.15-21.01,37.15h-42.04l-21.01-37.15Zm2.33,0l19.85,35.07h39.69l19.84-35.07-19.84-35.08h-39.69l-19.85,35.08Z"/>
  <path class="cls-1" d="m0,348.51l72.17-127.55h144.35l72.18,127.55-72.18,127.54H72.17L0,348.51Zm8.04,0l68.15,120.44h136.31l68.16-120.44-68.16-120.46H76.19L8.04,348.51Z"/>
  <path class="cls-1" d="m19.99,754.65l111.25-196.61h222.5l111.25,196.61-111.25,196.61h-222.51l-111.25-196.61Zm12.37,0l105.06,185.67h210.12l105.06-185.67-105.06-185.66h-210.12l-105.06,185.65Z"/>
  <path class="cls-1" d="m179.4,287.03l92.89-164.16h185.77l92.89,164.16-92.89,164.14h-185.77l-92.89-164.14Zm10.35,0l87.71,155.01h175.44l87.71-155.01-87.71-155.02h-175.44l-87.71,155.02Z"/>
  <path class="cls-1" d="m461.63,609.3l61.55-108.76h123.1l61.54,108.76-61.54,108.77h-123.1l-61.55-108.77Zm6.86,0l58.11,102.71h116.24l58.12-102.71-58.12-102.7h-116.24l-58.11,102.7Z"/>
  <path class="cls-1" d="m717.83,455.89l61.53-108.77h123.1l61.55,108.77-61.55,108.76h-123.1l-61.53-108.76Zm6.85,0l58.11,102.71h116.25l58.12-102.71-58.12-102.71h-116.25l-58.11,102.71Z"/>
  <path class="cls-1" d="m364.69,788.46l41.73-73.76h83.46l41.74,73.76-41.74,73.76h-83.46l-41.73-73.76Zm4.63,0l39.42,69.65h78.83l39.41-69.65-39.41-69.66h-78.83l-39.42,69.66Z"/>
</svg>