<svg xmlns="http://www.w3.org/2000/svg" viewBox="0 0 300 98.1" id="big-logo" fill="#ffffff">
    <path d="M13.984 11.725V17.1l2.474 2.474L2.689 33.453l4.733 4.733L21.19 24.417l13.769 13.769 4.84-4.733-13.876-13.769L28.4 17.21v-5.378l3.98-3.98v5.378l1.4 1.4 6.02-6.025 1.4 1.183a11.438 11.438 0 00-3.442-6.777 5.384 5.384 0 00-3.765-1.721 6.878 6.878 0 00-3.657 1.291c-.215.108-.323.215-.215.215l-6.134 6.132 1.183 1.183-.43.43.43-.43.43.43-4.3 4.3-4.3-4.3 1.613-1.613L12.478 2.8a1.331 1.331 0 00-.323-.215c-.215-.108-.43-.323-.861-.538a7.12 7.12 0 00-2.8-.753 5.384 5.384 0 00-3.761 1.718 10.835 10.835 0 00-3.442 6.776l1.291-1.183 6.024 6.024 1.4-1.4V7.852l3.98 3.872M7.422 39.8L.968 33.453l13.768-13.769-2.044-2.044v-5.378l-1.506-1.506v3.012L8.605 16.35l-6.131-6.024-2.366 2.259L0 11.294v-.645a11.991 11.991 0 013.872-8.5A6.575 6.575 0 018.5.108a6.758 6.758 0 014.733 1.936l7.1 6.992-1.613 1.613 2.58 2.582 2.582-2.582-1.616-1.614 7.1-7.1A7.976 7.976 0 0134.1 0a6.575 6.575 0 014.625 2.044 11.991 11.991 0 013.872 8.5v.645l-.108 1.183-2.366-2.259-6.023 6.022-2.9-2.474v-3.012l-1.506 1.506v5.378l-2.044 2.044 13.87 13.876-6.454 6.347L21.19 26.138" data-name="Path 1"></path>
    <path d="M5.27 65.722h1.184c2.259 0 2.689-.323 2.689-2.259h.54v5.271h-.648c0-1.936-.323-2.259-2.689-2.259H5.27v3.765c0 2.259.323 2.689 2.151 2.689v.538H1.183v-.538c1.936 0 2.151-.43 2.151-2.689v-7.53c0-2.259-.323-2.689-2.151-2.689v-.43h10.972l.215 3.012h-.538l-.108-.43c-.323-1.183-.538-1.721-2.689-1.721H5.27v5.271" data-name="Path 2"></path>
    <path d="M17.426 64.324h-1.291v3.98h1.291a1.837 1.837 0 001.936-2.044 1.806 1.806 0 00-1.936-1.936m2.367 6.561a5.9 5.9 0 003.119 2.151v.43H19.9l-3.119-4.3h-.645v1.183c0 2.259.323 2.689 1.829 2.689v.43h-5.272v-.43c1.506 0 1.829-.43 1.829-2.689V66.69c0-2.259-.323-2.689-1.829-2.689v-.43h4.733c2.366 0 3.657 1.183 3.657 2.9a2.914 2.914 0 01-2.8 2.8z" data-name="Path 3"></path>
    <path d="M23.987 73.471v-.43c1.506 0 1.829-.43 1.829-2.689V66.69c0-2.259-.323-2.689-1.829-2.689v-.43h5.271v.43c-1.506 0-1.829.323-1.829 2.689v3.657c0 2.259.323 2.689 1.829 2.689v.43h-5.271" data-name="Path 4"></path>
    <path d="M39.369 71.101l.108-.43h.43l-.108 2.8h-8.605v-.43c1.506 0 1.829-.43 1.829-2.689V66.69c0-2.259-.323-2.689-1.829-2.689v-.43h8.067l.215 2.8h-.538l-.108-.43c-.215-1.076-.538-1.506-2.689-1.506h-1.505v3.436h.108c2.259 0 2.474-.323 2.474-1.829h.43v4.518h-.43c0-1.506-.215-1.829-2.474-1.829h-.108v1.291c0 2.259.323 2.689 1.829 2.689h.323c2.044-.108 2.366-.43 2.582-1.613" data-name="Path 5"></path>
    <path d="M47.007 64.324h-1.506v6.561c0 1.506.108 1.721 1.291 1.721h.215c3.012 0 3.657-2.259 3.657-4.2 0-1.721-.645-4.087-3.657-4.087m-5.056 8.718c1.506 0 1.829-.43 1.829-2.689V66.69c0-2.259-.323-2.689-1.829-2.689v-.43h4.948c3.98 0 5.593 2.259 5.593 4.948 0 2.8-1.721 5.056-5.593 5.056h-4.948z" data-name="Path 6"></path>
    <path d="M58.623 64.324h-1.29v3.98h1.29a1.837 1.837 0 001.936-2.044 1.806 1.806 0 00-1.936-1.936m2.26 6.561a5.9 5.9 0 003.119 2.151v.43H60.99l-3.119-4.3h-.645v1.183c0 2.259.323 2.689 1.829 2.689v.43h-5.272v-.43c1.506 0 1.829-.43 1.829-2.689V66.69c0-2.259-.323-2.689-1.829-2.689v-.43h4.733c2.366 0 3.657 1.183 3.657 2.9a2.914 2.914 0 01-2.8 2.8z" data-name="Path 7"></path>
    <path d="M65.4 73.471v-.43c1.506 0 1.829-.43 1.829-2.689V66.69c0-2.259-.323-2.689-1.829-2.689v-.43h5.271v.43c-1.506 0-1.829.323-1.829 2.689v3.657c0 2.259.323 2.689 1.829 2.689v.43H65.4" data-name="Path 8"></path>
    <path d="M81.212 73.467a3.03 3.03 0 00-.43-1.183 4.109 4.109 0 01-3.012 1.506 5.379 5.379 0 010-10.757 4.109 4.109 0 013.012 1.506 3.03 3.03 0 00.43-1.183h.43v3.977h-.43c-.43-2.151-1.613-3.55-3.442-3.55-2.582 0-3.335 2.582-3.335 4.518s.753 4.518 3.335 4.518c1.829 0 3.012-1.4 3.442-3.55h.43v3.98h-.43" data-name="Path 9"></path>
    <path d="M92.506 67.764v-1.181c0-2.259-.323-2.689-1.829-2.689v-.43h5.271v.43c-1.506 0-1.829.323-1.829 2.689v3.657c0 2.259.323 2.689 1.829 2.689v.43h-5.271v-.43c1.506 0 1.829-.43 1.829-2.689v-1.72h-5.271v1.721c0 2.259.323 2.689 1.829 2.689v.43h-5.271v-.43c1.506 0 1.829-.43 1.829-2.689v-3.658c0-2.259-.323-2.689-1.829-2.689v-.43h5.271v.43c-1.506 0-1.829.323-1.829 2.689v1.181h5.271" data-name="Path 10"></path>
    <path d="M110.685 73.897h-.323l-3.761-11.724c-.538-1.721-.861-2.044-2.8-2.044v-.43h6.454v.43c-1.936 0-2.259.43-1.829 1.721l2.474 7.96 3.227-10.219h.323l3.227 10.219 2.474-7.96c.323-1.291 0-1.721-1.613-1.721v-.43h5.163v.43c-1.936 0-2.259.43-2.8 2.044l-3.765 11.725h-.323l-3.227-10.219-2.9 10.219" data-name="Path 11"></path>
    <path d="M123.055 73.471v-.43c1.506 0 1.829-.43 1.829-2.689V66.69c0-2.259-.323-2.689-1.829-2.689v-.43h5.271v.43c-1.506 0-1.829.323-1.829 2.689v3.657c0 2.259.323 2.689 1.829 2.689v.43h-5.271" data-name="Path 12"></path>
    <path d="M130.369 63.894v-.43h5.271v.43c-1.506 0-1.829.323-1.829 2.689v3.335c0 2.259.323 2.689 1.829 2.689h.861c2.151 0 2.366-.43 2.689-1.506l.108-.43h.538l-.215 2.8h-9.252v-.43c1.506 0 1.829-.43 1.829-2.689v-3.661c0-2.366-.215-2.8-1.829-2.8" data-name="Path 13"></path>
    <path d="M149.624 67.764v-1.181c0-2.259-.323-2.689-1.829-2.689v-.43h5.271v.43c-1.506 0-1.829.323-1.829 2.689v3.657c0 2.259.323 2.689 1.829 2.689v.43h-5.271v-.43c1.506 0 1.829-.43 1.829-2.689v-1.72h-5.271v1.721c0 2.259.323 2.689 1.829 2.689v.43h-5.271v-.43c1.506 0 1.829-.43 1.829-2.689v-3.658c0-2.259-.323-2.689-1.829-2.689v-.43h5.271v.43c-1.506 0-1.829.323-1.829 2.689v1.181h5.271" data-name="Path 14"></path>
    <path d="M163.177 71.101l.108-.43h.43l-.215 2.8h-8.606v-.43c1.506 0 1.829-.43 1.829-2.689V66.69c0-2.259-.323-2.689-1.829-2.689v-.43h8.067l.215 2.8h-.538l-.108-.43c-.215-1.076-.538-1.506-2.689-1.506h-1.506v3.436h.108c2.259 0 2.474-.323 2.474-1.829h.43v4.518h-.43c0-1.506-.215-1.829-2.474-1.829h-.108v1.291c0 2.259.323 2.689 1.829 2.689h.323c2.151-.108 2.366-.43 2.689-1.613" data-name="Path 15"></path>
    <path d="M165.651 63.894v-.43h5.271v.43c-1.506 0-1.829.323-1.829 2.689v3.335c0 2.259.323 2.689 1.829 2.689h.861c2.151 0 2.366-.43 2.689-1.506l.108-.43h.538l-.215 2.8h-9.252v-.43c1.506 0 1.829-.43 1.829-2.689v-3.661c0-2.366-.323-2.8-1.829-2.8" data-name="Path 16"></path>
    <path d="M178.774 70.348c0 2.259.323 2.689 1.829 2.689v.43h-4.518v-.43c1.506 0 1.829-.43 1.829-2.689V66.69c0-2.259-.323-2.689-1.829-2.689v-.43h3.442l3.442 7.745 3.442-7.745h3.227v.43c-1.506 0-1.829.323-1.829 2.689v3.657c0 2.259.323 2.689 1.829 2.689v.43h-5.271v-.43c1.506 0 1.829-.43 1.829-2.689v-4.3l-3.442 7.852h-.323l-3.657-8.175v4.625" data-name="Path 17"></path>
    <path d="M208.031 63.571a2.791 2.791 0 00-2.9-3.012h-2.044v6.132h2.044a2.934 2.934 0 002.9-3.119m.215 6.454c2.366 2.474 2.689 3.012 3.98 2.9l.323.538h-3.872l-4.625-6.131h-1.076v2.9c0 2.259.323 2.689 2.151 2.689v.538h-6.131v-.538c1.936 0 2.151-.43 2.151-2.689v-7.53c0-2.259-.323-2.689-2.151-2.689v-.423h6.131c3.227 0 4.948 1.721 4.948 3.872 0 2.044-1.506 3.657-4.087 3.872z" data-name="Path 18"></path>
    <path d="M216.851 65.826l-1.506 3.55h3.013l-1.506-3.55m-2.474 5.378c-.538 1.4-.538 1.721 1.291 1.721v.538h-4.411v-.537c1.4 0 1.613-.323 2.366-2.044l3.442-7.96h.323l3.442 7.96c.753 1.721 1.076 2.044 2.259 2.044v.538h-5.163v-.538c1.613 0 1.829-.43 1.291-1.721l-.43-1.076h-3.765z" data-name="Path 19"></path>
    <path d="M223.736 73.471v-.43c1.506 0 1.829-.43 1.829-2.689V66.69c0-2.259-.323-2.689-1.829-2.689v-.43h5.271v.43c-1.506 0-1.829.323-1.829 2.689v3.657c0 2.259.323 2.689 1.829 2.689v.43h-5.271" data-name="Path 20"></path>
    <path d="M236.322 73.037v.43h-5.271v-.43c1.506 0 1.829-.43 1.829-2.689V66.69c0-2.259-.323-2.689-1.829-2.689v-.43h8.39l.215 2.8h-.538l-.108-.43c-.323-1.076-.538-1.506-2.689-1.506h-1.829v3.436h.108c2.259 0 2.474-.323 2.474-1.829h.43v4.518h-.43c0-1.506-.215-1.829-2.474-1.829h-.108v1.721c0 2.151.215 2.582 1.829 2.582" data-name="Path 21"></path>
    <path d="M246.218 73.037v.43h-5.271v-.43c1.506 0 1.829-.43 1.829-2.689V66.69c0-2.259-.323-2.689-1.829-2.689v-.43h8.39l.215 2.8h-.538l-.108-.43c-.323-1.076-.538-1.506-2.689-1.506h-1.829v3.436h.108c2.366 0 2.474-.323 2.474-1.829h.43v4.518h-.43c0-1.506-.215-1.829-2.474-1.829h-.108v1.721c0 2.151.323 2.582 1.829 2.582" data-name="Path 22"></path>
    <path d="M259.341 71.101l.108-.43h.43l-.215 2.8h-8.606v-.43c1.506 0 1.829-.43 1.829-2.689V66.69c0-2.259-.323-2.689-1.829-2.689v-.43h8.067l.215 2.8h-.538l-.108-.43c-.215-1.076-.538-1.506-2.689-1.506h-1.506v3.436h.108c2.366 0 2.474-.323 2.474-1.829h.43v4.518h-.43c0-1.506-.215-1.829-2.474-1.829h-.108v1.291c0 2.259.323 2.689 1.829 2.689h.323c2.151-.108 2.474-.43 2.689-1.613" data-name="Path 23"></path>
    <path d="M261.814 73.471v-.43c1.506 0 1.829-.43 1.829-2.689V66.69c0-2.259-.323-2.689-1.829-2.689v-.43h5.271v.43c-1.506 0-1.829.323-1.829 2.689v3.657c0 2.259.323 2.689 1.829 2.689v.43h-5.271" data-name="Path 24"></path>
    <path d="M272.894 73.897a4.514 4.514 0 01-2.582-.861 3.154 3.154 0 00-.43.861h-.43v-3.98h.43c.215 1.936 1.4 3.119 3.119 3.119a1.626 1.626 0 001.829-1.503c0-.861-.645-1.4-1.936-2.044l-1.613-.861a3.184 3.184 0 01-1.936-2.8 2.719 2.719 0 012.9-2.689 3.645 3.645 0 012.151.645.983.983 0 00.323-.753h.43v3.872h-.43c-.108-1.4-.753-3.012-2.474-3.012a1.471 1.471 0 00-1.613 1.291c0 .861.645 1.291 2.044 1.936l1.506.861a3.009 3.009 0 011.829 2.582 2.947 2.947 0 01-3.119 3.335" data-name="Path 25"></path>
    <path d="M286.124 71.101l.108-.43h.43l-.215 2.8h-8.606v-.43c1.506 0 1.829-.43 1.829-2.689V66.69c0-2.259-.323-2.689-1.829-2.689v-.43h8.067l.215 2.8h-.538l-.108-.43c-.215-1.076-.538-1.506-2.689-1.506h-1.506v3.436h.108c2.259 0 2.474-.323 2.474-1.829h.43v4.518h-.323c0-1.506-.215-1.829-2.474-1.829h-.108v1.291c0 2.259.323 2.689 1.829 2.689h.323c2.044-.108 2.366-.43 2.582-1.613" data-name="Path 26"></path>
    <path d="M288.383 63.894v-.43h2.8l6.131 7.314v-4.2c0-2.259-.323-2.689-1.829-2.689v-.425h4.518v.43c-1.506 0-1.829.323-1.829 2.689v7.207h-.43l-6.777-8.067v4.518c0 2.259.323 2.689 1.829 2.689v.43h-4.521v-.43c1.506 0 1.829-.43 1.829-2.689v-3.658c.107-2.259-.108-2.689-1.721-2.689" data-name="Path 27"></path>
    <path d="M8.283 90.786a2.057 2.057 0 00-2.152-2.26H4.083V91c0 1.721.215 1.936 1.613 1.936h.43a1.979 1.979 0 002.157-2.15m-4.2-2.8h1.51a1.691 1.691 0 001.829-1.829 1.723 1.723 0 00-1.829-1.933h-1.51zm5.6 2.8c0 1.506-1.291 2.8-3.55 2.8h-4.95v-.323c1.4 0 1.613-.323 1.613-1.936v-5.382c0-1.721-.215-1.936-1.613-1.936v-.323h4.518c2.151 0 3.227 1.076 3.227 2.474a2.41 2.41 0 01-1.291 2.044 2.746 2.746 0 012.046 2.582z" data-name="Path 28"></path>
    <path d="M14.414 90.573c-1.613.323-2.259.968-2.259 1.613a.767.767 0 00.753.861 2.32 2.32 0 001.506-.753v-1.721m1.183 3.227a1.085 1.085 0 01-1.183-.968 2.929 2.929 0 01-2.044.968 1.385 1.385 0 01-1.506-1.4c0-1.4 1.613-2.044 3.55-2.366 0-1.291-.215-1.721-1.076-1.721-.43 0-.968.323-.968.753a.538.538 0 01-1.076 0c0-.753 1.076-1.291 2.151-1.291 1.613 0 2.259.645 2.259 2.259v2.579c0 .43.108.645.43.645a.559.559 0 00.43-.215l.215.323a3.191 3.191 0 01-1.182.431z" data-name="Path 29"></path>
    <path d="M22.158 87.773c1.506 0 2.151 1.076 2.151 2.474v1.076c0 1.721.215 1.936 1.291 1.936v.323h-3.872v-.323c1.076 0 1.291-.323 1.291-1.936v-.968c0-1.076-.43-1.829-1.4-1.829a1.892 1.892 0 00-1.936 1.721v1.076c0 1.721.108 1.936 1.183 1.936v.323H17.21v-.323c1.076 0 1.291-.323 1.291-1.936v-.861c0-1.721-.215-1.936-1.291-1.936v-.323l2.259-.43c.108.215.215.861.323 1.183a2.968 2.968 0 012.366-1.183" data-name="Path 30"></path>
    <path d="M32.27 92.829a1.5 1.5 0 00.968.43v.323h-1.829l-2.689-2.689-.108.108v.323c0 1.721.215 1.936 1.291 1.936v.323h-3.872v-.32c1.076 0 1.291-.323 1.291-1.936v-5.275c0-1.721-.215-1.936-1.291-1.936v-.323l2.474-.43v7.1l1.4-1.183c.538-.43.323-.861-.538-.861v-.323h3.335v.323a3.7 3.7 0 00-1.721.645l-1.4 1.183 2.689 2.582" data-name="Path 31"></path>
    <path d="M35.605 86.16a.753.753 0 11.753-.753.735.735 0 01-.753.753m-1.829 7.422v-.323c1.076 0 1.291-.323 1.291-1.936v-.861c0-1.721-.215-1.936-1.291-1.936v-.322l2.474-.43v3.55c0 1.721.215 1.936 1.291 1.936v.323z" data-name="Path 32"></path>
    <path d="M43.348 87.773c1.506 0 2.151 1.076 2.151 2.474v1.076c0 1.721.215 1.936 1.291 1.936v.323h-3.764v-.323c1.076 0 1.291-.323 1.291-1.936v-.968c0-1.076-.43-1.829-1.4-1.829a1.892 1.892 0 00-1.936 1.721v1.076c0 1.721.108 1.936 1.183 1.936v.323h-3.656v-.323c1.076 0 1.291-.323 1.291-1.936v-.861c0-1.721-.215-1.936-1.291-1.936v-.323l2.259-.43c.108.215.215.861.323 1.183a2.916 2.916 0 012.258-1.183" data-name="Path 33"></path>
    <path d="M50.345 88.311c-.861 0-1.183.753-1.183 1.721s.43 1.721 1.183 1.721c.861 0 1.183-.753 1.183-1.721s-.327-1.721-1.183-1.721m0 5.378c2.259.215 3.012 1.183 3.012 2.151 0 1.4-1.291 2.259-2.9 2.259-2.8 0-3.872-2.044-1.829-3.119l.323.215c-1.4 1.506.215 2.259 1.613 2.259 1.076 0 2.044-.538 2.044-1.291s-.869-1.075-2.263-1.182-2.366-.538-2.366-1.506c0-.645.538-1.076 1.4-1.291a2.239 2.239 0 011.066-4.303 2.443 2.443 0 011.721.645 2.124 2.124 0 011.291-.645c1.183 0 1.183 1.4.538 1.4-.753 0-.323-.753-.968-.753a1.817 1.817 0 00-.538.215 1.984 1.984 0 01.43 1.4 2.418 2.418 0 01-2.151 2.259c-.753.108-1.829.215-1.829.753-.104.319.864.426 1.406.535z" data-name="Path 34"></path>
    <path d="M60.129 93.905h-.323v-3.657h.323a2.984 2.984 0 003.119 3.012 1.872 1.872 0 002.044-1.829c0-.753-.753-1.4-1.936-2.044l-1.613-.861a3.273 3.273 0 01-1.829-2.8 2.588 2.588 0 012.8-2.474 3.543 3.543 0 012.044.645 1.089 1.089 0 00.43-.753h.43v3.657h-.323c-.108-1.291-.645-2.9-2.582-2.9a1.5 1.5 0 00-1.613 1.506c0 .861.538 1.291 2.044 2.044l1.613.861a2.771 2.771 0 011.721 2.582 2.967 2.967 0 01-3.119 3.012 7.452 7.452 0 01-2.582-.753 1.137 1.137 0 00-.645.753" data-name="Path 35"></path>
    <path d="M69.38 86.16a.753.753 0 11.753-.753.735.735 0 01-.753.753m-1.936 7.422v-.323c1.076 0 1.291-.323 1.291-1.936v-.861c0-1.721-.215-1.936-1.291-1.936v-.322l2.474-.43v3.55c0 1.721.215 1.936 1.291 1.936v.323z" data-name="Path 36"></path>
    <path d="M77.124 87.773c1.506 0 2.151 1.076 2.151 2.474v1.076c0 1.721.215 1.936 1.291 1.936v.323h-3.872v-.323c1.076 0 1.291-.323 1.291-1.936v-.968c0-1.076-.43-1.829-1.4-1.829a1.892 1.892 0 00-1.936 1.721v1.076c0 1.721.108 1.936 1.183 1.936v.323h-3.656v-.323c1.076 0 1.291-.323 1.291-1.936v-.861c0-1.721-.215-1.936-1.291-1.936v-.323l2.259-.43c.108.215.215.861.323 1.183a2.968 2.968 0 012.366-1.183" data-name="Path 37"></path>
    <path d="M82.61 91a1.982 1.982 0 002.044 2.259 2.906 2.906 0 001.829-.753l.323.323a3.5 3.5 0 01-2.479 1.075 2.765 2.765 0 01-2.9-2.9 3.189 3.189 0 012.9-3.231c1.4 0 1.936.538 1.936 1.183a.8.8 0 01-.753.753.694.694 0 01-.645-.645c0-.538-.323-.753-.645-.753-.861 0-1.613 1.183-1.613 2.689" data-name="Path 38"></path>
    <path d="M92.073 89.817c.215-.538-.108-1.4-1.183-1.4-.753 0-1.291.538-1.613 1.4h2.8m-.753 3.335a3.051 3.051 0 001.829-.753l.323.323a3.563 3.563 0 01-2.582 1.076 3.055 3.055 0 01-3.121-3.12 3.1 3.1 0 013.119-3.012 2.137 2.137 0 012.259 2.689h-3.978c-.217 1.611.429 2.797 2.15 2.797z" data-name="Path 39"></path>
    <path d="M109.824 85.407a1.437 1.437 0 00-1.4-1.506 1.37 1.37 0 00-1.4 1.506 2.292 2.292 0 001.617 2.156 2.245 2.245 0 001.183-2.151m-3.442 5.7a2.056 2.056 0 002.044 2.151 1.971 1.971 0 002.044-2.044c0-1.4-1.183-2.044-2.366-2.8a2.945 2.945 0 00-1.722 2.689zm5.378-.108a3.376 3.376 0 01-6.669.108c0-1.721 1.183-2.474 2.474-3.012-.968-.645-1.829-1.291-1.829-2.366a2.571 2.571 0 012.8-2.366 2.644 2.644 0 012.8 2.259c0 1.183-.968 1.829-2.151 2.366 1.177.533 2.575 1.286 2.575 3.007z" data-name="Path 40"></path>
    <path d="M118.537 85.407a1.461 1.461 0 00-1.506-1.506 1.37 1.37 0 00-1.4 1.506 2.292 2.292 0 001.613 2.151 2.325 2.325 0 001.291-2.151m-3.442 5.7a2.056 2.056 0 002.044 2.151 1.971 1.971 0 002.044-2.044c0-1.4-1.183-2.044-2.366-2.8a2.945 2.945 0 00-1.72 2.694zm5.378-.108a3.376 3.376 0 01-6.669.108c0-1.721 1.183-2.474 2.474-3.012-.968-.645-1.829-1.291-1.829-2.366a2.571 2.571 0 012.8-2.366 2.644 2.644 0 012.8 2.259c0 1.183-.968 1.829-2.151 2.366 1.179.538 2.577 1.291 2.577 3.012z" data-name="Path 41"></path>
    <path d="M125.852 93.256c1.506 0 1.936-1.291 1.936-2.474s-.538-2.474-1.936-2.474a2.144 2.144 0 00-2.044 1.183c.215 3.335 1.506 3.765 2.044 3.765m0-5.593a3.126 3.126 0 110 6.239c-1.291 0-3.335-.861-3.335-4.733 0-2.8 1.291-5.916 3.872-5.916 1.4 0 2.474.753 2.474 1.291a.394.394 0 01-.43.43c-.538 0-.753-1.183-2.044-1.183-1.829 0-2.366 2.474-2.474 4.84a2.44 2.44 0 011.937-.965z" data-name="Path 42"></path>
    <path d="M99.283 93.581v-.43c1.291 0 1.506-.323 1.506-2.582v-3.011c0-2.151-.215-2.582-1.506-2.582v-.43h4.2v.538c-1.291 0-1.506.323-1.506 2.582v3.012c0 2.151.215 2.582 1.506 2.582v.43h-4.2" data-name="Path 43"></path>
</svg>